<!-- Placeholder Logo SVG for Nattu Sakkarai -->
<svg width="100" height="100" viewBox="0 0 100 100" xmlns="http://www.w3.org/2000/svg">
  <!-- Background Circle -->
  <circle cx="50" cy="50" r="48" fill="#8B4513" stroke="#654321" stroke-width="2"/>
  
  <!-- Inner Circle -->
  <circle cx="50" cy="50" r="42" fill="#D2691E"/>
  
  <!-- Jaggery Bowl Icon -->
  <path d="M 30 45 Q 30 35 35 32 Q 40 30 50 30 Q 60 30 65 32 Q 70 35 70 45 L 68 60 Q 68 65 65 68 Q 60 70 50 70 Q 40 70 35 68 Q 32 65 32 60 Z" 
        fill="#8B4513" 
        stroke="#654321" 
        stroke-width="1.5"/>
  
  <!-- Jaggery Pieces -->
  <rect x="42" y="40" width="6" height="6" rx="1" fill="#FFD700"/>
  <rect x="52" y="40" width="6" height="6" rx="1" fill="#FFD700"/>
  <rect x="47" y="48" width="6" height="6" rx="1" fill="#FFD700"/>
  
  <!-- Text NS -->
  <text x="50" y="88" font-family="Georgia, serif" font-size="18" font-weight="bold" fill="#F5E6D3" text-anchor="middle">NS</text>
</svg>
